<svg width="21" height="17" viewBox="0 0 21 17" fill="none" xmlns="http://www.w3.org/2000/svg">
<path d="M13.9102 5.15625C14.1211 5.15625 14.332 5.15625 14.5781 5.19141C13.9805 2.44922 11.0273 0.375 7.65234 0.375C3.89062 0.375 0.832031 2.94141 0.832031 6.21094C0.832031 8.07422 1.85156 9.62109 3.53906 10.8164L2.87109 12.8906L5.26172 11.6953C6.14062 11.8711 6.80859 12.0469 7.65234 12.0469C7.89844 12.0469 8.07422 12.0117 8.32031 12.0117C8.17969 11.5547 8.07422 11.0625 8.07422 10.5703C8.07422 7.58203 10.6406 5.15625 13.9102 5.15625ZM10.2188 3.29297C10.7461 3.29297 11.0625 3.64453 11.0625 4.17188C11.0625 4.66406 10.7461 5.01562 10.2188 5.01562C9.69141 5.01562 9.19922 4.66406 9.19922 4.17188C9.19922 3.64453 9.72656 3.29297 10.2188 3.29297ZM5.4375 5.01562C4.91016 5.01562 4.41797 4.66406 4.41797 4.17188C4.41797 3.64453 4.91016 3.29297 5.4375 3.29297C5.96484 3.29297 6.28125 3.64453 6.28125 4.17188C6.28125 4.66406 5.96484 5.01562 5.4375 5.01562ZM20.168 10.5C20.168 7.75781 17.4258 5.54297 14.332 5.54297C11.0625 5.54297 8.53125 7.75781 8.53125 10.5C8.53125 13.2422 11.0977 15.457 14.332 15.457C15 15.457 15.7031 15.2812 16.4062 15.1055L18.2695 16.1602L17.7422 14.4375C19.1484 13.418 20.168 12.0469 20.168 10.5ZM12.4336 9.62109C12.1172 9.62109 11.7656 9.30469 11.7656 8.95312C11.7656 8.60156 12.1172 8.25 12.4336 8.25C12.9609 8.25 13.3125 8.60156 13.3125 8.95312C13.3125 9.30469 12.9609 9.62109 12.4336 9.62109ZM16.2305 9.62109C15.8789 9.62109 15.5273 9.30469 15.5273 8.95312C15.5273 8.60156 15.8789 8.25 16.2305 8.25C16.7227 8.25 17.0742 8.60156 17.0742 8.95312C17.0742 9.30469 16.7227 9.62109 16.2305 9.62109Z" fill="white"/>
</svg>
