<svg width="27" height="24" viewBox="0 0 27 24" fill="none" xmlns="http://www.w3.org/2000/svg">
<path d="M1.58658 13.7045L1.67987 13.5578L7.30655 4.75562C7.38879 4.62671 7.58211 4.64007 7.64435 4.78004C8.58432 6.88674 9.39547 9.50674 9.01546 11.1378C8.85324 11.8089 8.40878 12.7178 7.90876 13.5578C7.84435 13.6801 7.77321 13.8001 7.69765 13.9156C7.66213 13.9689 7.6021 14.0001 7.53764 14.0001H1.75101C1.59542 14.0001 1.50434 13.8312 1.58658 13.7045Z" fill="white"/>
<path d="M26.6667 15.34V16.7333C26.6667 16.8133 26.6178 16.8845 26.5466 16.9155C26.1111 17.1022 24.62 17.7867 24 18.6489C22.4178 20.8511 21.2089 24 18.5067 24H7.23331C3.23778 24 0 20.7511 0 16.7422V16.6133C0 16.5067 0.0866622 16.42 0.193319 16.42H6.47777C6.60221 16.42 6.69334 16.5355 6.68224 16.6578C6.63778 17.0667 6.71334 17.4845 6.90666 17.8645C7.27998 18.6222 8.05335 19.0956 8.88887 19.0956H12V16.6667H8.92444C8.76664 16.6667 8.67335 16.4845 8.76443 16.3555C8.79779 16.3044 8.83557 16.2511 8.87556 16.1911C9.16664 15.7778 9.58222 15.1355 9.99553 14.4044C10.2778 13.9111 10.5511 13.3844 10.7711 12.8556C10.8156 12.76 10.8511 12.6622 10.8867 12.5666C10.9466 12.3978 11.0089 12.24 11.0533 12.0822C11.0978 11.9489 11.1333 11.8089 11.1689 11.6778C11.2733 11.2289 11.3178 10.7533 11.3178 10.26C11.3178 10.0667 11.3089 9.86446 11.2911 9.67109C11.2822 9.45999 11.2556 9.24888 11.2289 9.03778C11.2111 8.85109 11.1778 8.66667 11.1422 8.47335C11.0978 8.19111 11.0356 7.91113 10.9644 7.62889L10.94 7.52223C10.8867 7.32891 10.8422 7.14444 10.78 6.95112C10.6044 6.34444 10.4022 5.75333 10.1889 5.2C10.1111 4.98 10.0222 4.7689 9.93333 4.5578C9.80221 4.23999 9.66888 3.95112 9.54665 3.67777C9.48445 3.55333 9.4311 3.43999 9.37779 3.32444C9.31776 3.19332 9.25556 3.06224 9.19332 2.93776C9.14891 2.8422 9.09777 2.75333 9.0622 2.66446L8.68224 1.96222C8.62889 1.86667 8.71776 1.75333 8.82221 1.78222L11.2 2.42668H11.2067C11.2111 2.42668 11.2133 2.42889 11.2156 2.42889L11.5289 2.51555L11.8733 2.61331L12 2.64888V1.23557C12 0.553329 12.5466 0 13.2222 0C13.56 0 13.8667 0.137755 14.0867 0.36222C14.3067 0.586686 14.4445 0.893343 14.4445 1.23557V3.33333L14.6978 3.40442C14.7178 3.4111 14.7378 3.42 14.7555 3.43331C14.8178 3.47998 14.9067 3.54891 15.02 3.63331C15.1089 3.70445 15.2044 3.79111 15.32 3.87998C15.5489 4.06446 15.8222 4.30224 16.1222 4.57553C16.2022 4.64446 16.28 4.71555 16.3511 4.78669C16.7378 5.14665 17.1711 5.5689 17.5844 6.03557C17.7 6.16664 17.8133 6.29998 17.9289 6.43999C18.0445 6.58222 18.1666 6.72223 18.2733 6.86225C18.4133 7.04888 18.5644 7.2422 18.6956 7.44446C18.7578 7.54002 18.8289 7.63778 18.8889 7.73333C19.0578 7.9889 19.2067 8.25335 19.3489 8.51776C19.4089 8.63999 19.4711 8.77332 19.5244 8.90445C19.6822 9.25777 19.8067 9.61779 19.8867 9.97779C19.9111 10.0556 19.9289 10.14 19.9378 10.2156V10.2333C19.9644 10.34 19.9733 10.4534 19.9822 10.5689C20.0178 10.9378 20 11.3067 19.92 11.6778C19.8867 11.8356 19.8422 11.9844 19.7889 12.1422C19.7355 12.2933 19.6822 12.4511 19.6133 12.6C19.48 12.9089 19.3222 13.2178 19.1355 13.5067C19.0756 13.6133 19.0044 13.7267 18.9333 13.8333C18.8556 13.9466 18.7755 14.0534 18.7044 14.1578C18.6067 14.2911 18.5022 14.4311 18.3955 14.5555C18.3 14.6867 18.2022 14.8178 18.0956 14.9333C17.9466 15.1089 17.8044 15.2756 17.6556 15.4356C17.5666 15.54 17.4711 15.6467 17.3733 15.7422C17.2778 15.8489 17.18 15.9444 17.0911 16.0333C16.9422 16.1822 16.8178 16.2978 16.7133 16.3933L16.4689 16.6178C16.4333 16.6489 16.3866 16.6667 16.3378 16.6667H14.4445V19.0956H16.8267C17.36 19.0956 17.8667 18.9067 18.2756 18.56C18.4155 18.4378 19.0267 17.9089 19.7489 17.1111C19.7733 17.0845 19.8044 17.0645 19.84 17.0556L26.42 15.1533C26.5422 15.1178 26.6667 15.2111 26.6667 15.34Z" fill="white"/>
</svg>
