<svg width="22" height="22" viewBox="0 0 22 22" fill="none" xmlns="http://www.w3.org/2000/svg">
<path d="M9.8925 0.67415C10.3573 -0.224716 11.6427 -0.224716 12.1075 0.67415L15.067 6.39808C15.1856 6.62746 15.3725 6.81435 15.602 6.93295L21.3258 9.8925C22.2247 10.3573 22.2247 11.6427 21.3258 12.1075L15.602 15.067C15.3725 15.1856 15.1856 15.3725 15.067 15.602L12.1075 21.3258C11.6427 22.2247 10.3573 22.2247 9.8925 21.3258L6.93295 15.602C6.81435 15.3725 6.62746 15.1856 6.39808 15.067L0.67415 12.1075C-0.224716 11.6427 -0.224716 10.3573 0.67415 9.8925L6.39808 6.93295C6.62746 6.81435 6.81435 6.62746 6.93295 6.39808L9.8925 0.67415Z" fill="#00FFA3" fill-opacity="0.3"/>
</svg>
