<svg width="26" height="30" viewBox="0 0 26 30" fill="none" xmlns="http://www.w3.org/2000/svg">
<g clip-path="url(#clip0_544_4442)">
<path d="M12.9653 1.40425L13.6623 0.510632C13.2441 0.191484 12.6864 0.191484 12.3379 0.510632L12.9653 1.40425ZM24.5363 4.85106H25.6516C25.6516 4.21276 25.1636 3.76595 24.5363 3.70212V4.85106ZM12.9653 28.5957L12.3379 29.4894C12.6864 29.7447 13.1744 29.7447 13.5926 29.4894L12.9653 28.5957ZM1.46391 4.85106V3.70212C0.836568 3.70212 0.348633 4.21276 0.348633 4.78723L1.46391 4.85106ZM12.3379 2.29787C17.3567 6.19148 23.0725 5.93616 24.5363 5.93616V3.70212C23.0028 3.70212 17.984 3.89361 13.6623 0.510632L12.3379 2.29787ZM23.421 4.85106C23.3513 10.0213 23.1422 13.6596 22.724 16.3404C22.3057 19.0213 21.7481 20.617 20.9813 21.7021C20.2146 22.8511 19.2387 23.5532 17.8446 24.383C16.3808 25.2766 14.6382 26.1702 12.4076 27.6383L13.6623 29.4894C15.7535 28.0851 17.5658 27.1915 19.0296 26.2979C20.5631 25.4042 21.8875 24.383 22.8634 22.9149C23.8392 21.383 24.5363 19.4681 24.9545 16.6596C25.3728 13.8511 25.5819 10.0851 25.7213 4.91489L23.421 4.85106ZM13.5926 27.6383C11.362 26.1702 9.5497 25.2128 8.1556 24.383C6.7615 23.5532 5.78563 22.8511 5.01887 21.7021C4.25212 20.5532 3.69448 19.0213 3.27625 16.3404C2.85802 13.6596 2.6489 10.0213 2.5792 4.85106H0.348633C0.418338 10.0851 0.697158 13.8511 1.11539 16.6596C1.53362 19.4681 2.23067 21.4468 3.20654 22.9149C4.18241 24.383 5.50681 25.4042 7.04032 26.2979C8.50413 27.1915 10.3165 28.0851 12.4076 29.4894L13.5926 27.6383ZM1.46391 5.93616C2.92772 5.93616 8.64354 6.19148 13.6623 2.29787L12.3379 0.574462C8.01619 3.95744 2.99743 3.76595 1.46391 3.76595V5.93616Z" fill="#0B65C6" stroke="#0B65C6" stroke-miterlimit="10"/>
</g>
<defs>
<clipPath id="clip0_544_4442">
<rect width="26" height="30" fill="white"/>
</clipPath>
</defs>
</svg>
